<svg version="1.2" xmlns="http://www.w3.org/2000/svg" viewBox="0 0 154 26" width="154" height="26">
	<title>logo_secondary-svg</title>
	<style>
		tspan { white-space:pre } 
		.s0 { fill: #00b37e } 
		.s1 { fill: #996dff } 
		.t2 { font-size: 24px;fill: #996dff;font-weight: 700;font-family: "DejaVuSansCondensed-Bold", "DejaVu Sans Condensed" } 
		.t3 { font-size: 24px;fill: #00b37e;font-weight: 700;font-family: "DejaVuSansCondensed-Bold", "DejaVu Sans Condensed" } 
	</style>
	<path id="Layer" fill-rule="evenodd" class="s0" d="m12.9 21.7h-8.5q-0.2 0-0.5-0.1-0.3-0.1-0.5-0.3-0.2-0.2-0.3-0.5-0.1-0.2-0.1-0.5v-8.4c0-2.5 1.1-5 2.9-6.8 1.9-1.8 4.4-2.9 7-2.9 1.3 0 2.6 0.3 3.8 0.8 1.2 0.5 2.3 1.2 3.2 2.1 1 0.9 1.7 1.9 2.2 3.1 0.5 1.2 0.7 2.5 0.7 3.7 0 1.3-0.2 2.6-0.7 3.8-0.5 1.1-1.2 2.2-2.2 3.1-0.9 0.9-2 1.6-3.2 2.1-1.2 0.5-2.5 0.8-3.8 0.8zm0-18.3c-2.3 0-4.5 0.9-6.1 2.5-1.6 1.6-2.5 3.8-2.5 6v8.4q0 0 0 0.1 0 0 0 0 0 0 0.1 0.1 0 0 0 0h8.5c1.2 0 2.3-0.3 3.4-0.7 1-0.4 2-1 2.8-1.8 0.8-0.8 1.4-1.8 1.8-2.8 0.5-1 0.7-2.1 0.7-3.3 0-1.1-0.2-2.2-0.7-3.2-0.4-1-1-2-1.8-2.8-0.8-0.8-1.8-1.4-2.8-1.8-1.1-0.4-2.2-0.7-3.4-0.7z"/>
	<path id="Layer" fill-rule="evenodd" class="s1" d="m9.1 10.8c0-0.4 0.3-0.6 0.6-0.6h6.1c0.3 0 0.6 0.2 0.6 0.6 0 0.3-0.3 0.6-0.6 0.6h-6.1c-0.3 0-0.6-0.3-0.6-0.6z"/>
	<path id="Layer" fill-rule="evenodd" class="s1" d="m9.1 13.9c0-0.3 0.3-0.6 0.6-0.6h6.1c0.3 0 0.6 0.3 0.6 0.6 0 0.4-0.3 0.6-0.6 0.6h-6.1c-0.3 0-0.6-0.2-0.6-0.6z"/>
	<text id="AppHelp" style="transform: matrix(1,0,0,1,36,21)" >
		<tspan x="0" y="0" class="t2">A</tspan><tspan  y="0" class="t2">p</tspan><tspan  y="0" class="t2">p</tspan><tspan  y="0" class="t3">H</tspan><tspan  y="0" class="t3">e</tspan><tspan  y="0" class="t3">l</tspan><tspan  y="0" class="t3">p
</tspan>
	</text>
</svg>